Coordinates
version=1
nRows=22
nColumns=24
inDegrees=yes

Units are S.I. units (second, meters, Newtons, ...)
Angles are in degrees.

endheader
time	pelvis_tilt	pelvis_list	pelvis_rotation	pelvis_tx	pelvis_ty	pelvis_tz	hip_flexion_r	hip_adduction_r	hip_rotation_r	knee_angle_r	ankle_angle_r	subtalar_angle_r	mtp_angle_r	hip_flexion_l	hip_adduction_l	hip_rotation_l	knee_angle_l	ankle_angle_l	subtalar_angle_l	mtp_angle_l	lumbar_extension	lumbar_bending	lumbar_rotation
      5.06000000	      5.40577906	      0.15926113	      5.27873820	     -2.42909101	      0.92152229	      0.23571629	     13.45274491	      3.04578555	     -5.37270882	     -0.20796724	      2.86177633	     -1.42733561	      0.00000000	    -17.31520283	      3.16499939	     11.12005491	     -8.83509856	     15.63453855	     -9.20973904	      0.00000000	    -25.87738851	      2.81383426	     -4.93697278
      5.07000000	      5.60110914	      0.13127293	      5.33950822	     -2.41848224	      0.92124370	      0.23689094	     13.11700637	      3.19202291	     -4.88023493	     -0.98056173	      1.70955324	     -2.21994730	      0.00000000	    -17.61549011	      3.03673668	     10.90775940	     -9.98985638	     15.60332953	     -8.86128774	      0.00000000	    -25.86872345	      2.85332914	     -5.04059893
      5.08000000	      5.75648458	      0.09549173	      5.38463199	     -2.40779955	      0.92120287	      0.23809983	     12.76423701	      3.35919411	     -4.34344779	     -1.70278752	      0.18475313	     -3.49339575	      0.00000000	    -17.73925468	      2.91844572	     10.65052745	    -11.38156325	     15.34210413	     -8.49905807	      0.00000000	    -25.78507433	      2.90225616	     -5.11819206
      5.09000000	      5.93393103	     -0.00077766	      5.44653714	     -2.39708323	      0.92154109	      0.23928808	     12.35566105	      3.59452884	     -4.03861499	     -2.37616189	     -1.37216036	     -4.76484401	      0.00000000	    -17.71937036	      2.73110603	     10.22252632	    -13.04204726	     14.95694932	     -7.96950338	      0.00000000	    -25.71566878	      3.04350355	     -5.20290465
      5.10000000	      6.12252745	     -0.14611022	      5.51613123	     -2.38640274	      0.92227657	      0.24044314	     11.91290247	      3.87857683	     -3.95927863	     -3.00295796	     -2.71316591	     -5.83279226	      0.00000000	    -17.52408006	      2.48687271	      9.61275326	    -14.99010891	     14.39278286	     -7.27073898	      0.00000000	    -25.65977056	      3.26060268	     -5.28221943
      5.11000000	      6.32653478	     -0.32807171	      5.57130824	     -2.37580522	      0.92340561	      0.24157976	     11.44261808	      4.19657688	     -4.05118832	     -3.61388404	     -3.63864750	     -6.56703627	      0.00000000	    -17.15453438	      2.19461407	      8.78775532	    -17.21074537	     13.58046600	     -6.46211572	      0.00000000	    -25.63930177	      3.53165031	     -5.33267057
      5.12000000	      6.54039789	     -0.52856065	      5.58822356	     -2.36534418	      0.92487767	      0.24273436	     10.96286638	      4.52713224	     -4.29332132	     -4.24398927	     -4.09138122	     -6.90706544	      0.00000000	    -16.60358818	      1.86726498	      7.72762981	    -19.68371861	     12.45315111	     -5.67804490	      0.00000000	    -25.66741877	      3.81879314	     -5.33886568
      5.13000000	      6.75577573	     -0.73951062	      5.58957611	     -2.35500148	      0.92662084	      0.24389542	     10.45404425	      4.85930164	     -4.54091148	     -4.86748870	     -3.99462023	     -6.93047009	      0.00000000	    -15.87098930	      1.48496293	      6.46299987	    -22.37277486	     10.94783267	     -4.80905492	      0.00000000	    -25.71590488	      4.11342828	     -5.32418997
      5.14000000	      6.96325218	     -0.94939420	      5.59341510	     -2.34482571	      0.92854914	      0.24504805	      9.93705121	      5.16450379	     -5.05351904	     -5.48598182	     -3.47005994	     -6.39246256	      0.00000000	    -14.95277998	      1.04624351	      5.07097178	    -25.24700575	      9.06021015	     -4.00981635	      0.00000000	    -25.79019293	      4.40710698	     -5.30268641
      5.15000000	      7.11508405	     -1.15239661	      5.54952718	     -2.33482185	      0.93048268	      0.24626753	      9.45996143	      5.44154445	     -5.68490905	     -6.08775972	     -2.59820283	     -5.44826041	      0.00000000	    -13.83804745	      0.58205743	      3.61998021	    -28.22446730	      6.70456710	     -3.65280469	      0.00000000	    -25.83409937	      4.65476887	     -5.19562528
      5.16000000	      7.23701679	     -1.34359264	      5.49192151	     -2.32497860	      0.93236734	      0.24753100	      8.95621029	      5.69528346	     -6.28485977	     -6.59448860	     -1.63234753	     -4.42363661	      0.00000000	    -12.58517587	      0.08469386	      2.19005303	    -31.23777751	      3.97233676	     -3.74444830	      0.00000000	    -25.87281345	      4.85882236	     -5.03612982
      5.17000000	      7.32766779	     -1.53475349	      5.43254037	     -2.31528415	      0.93412290	      0.24883851	      8.42278531	      5.94417808	     -6.85106004	     -6.98249341	     -0.68537667	     -3.37718762	      0.00000000	    -11.21411475	     -0.46213322	      0.80729561	    -34.24477149	      1.10295719	     -4.21722118	      0.00000000	    -25.89792665	      5.03140666	     -4.82842460
      5.18000000	      7.33558910	     -1.70702288	      5.37228368	     -2.30574190	      0.93562197	      0.25019020	      7.91031140	      6.18261432	     -7.14865045	     -7.24490714	      0.20856254	     -2.65327756	      0.00000000	     -9.70170936	     -1.00666984	     -0.42897766	    -37.18694601	     -1.65539218	     -5.06152336	      0.00000000	    -25.84447238	      5.14043267	     -4.55698714
      5.19000000	      7.35156496	     -1.89375538	      5.34090798	     -2.29633301	      0.93699604	      0.25151474	      7.34436521	      6.43466690	     -7.55562002	     -7.40222319	      1.04983716	     -1.75430403	      0.00000000	     -8.17447476	     -1.57971951	     -1.48230361	    -40.00050986	     -4.00476727	     -6.19399441	      0.00000000	    -25.82363622	      5.25233548	     -4.25396668
      5.20000000	      7.38570615	     -2.09998277	      5.32389950	     -2.28704744	      0.93825577	      0.25280496	      6.72800657	      6.70973292	     -8.06502768	     -7.47985489	      1.90404334	     -0.68419555	      0.00000000	     -6.66029268	     -2.16813000	     -2.36389201	    -42.65212014	     -5.59468971	     -7.39709405	      0.00000000	    -25.84467847	      5.37438999	     -3.88749351
      5.21000000	      7.37090632	     -2.26008881	      5.34221151	     -2.27791223	      0.93934375	      0.25402037	      6.10389927	      6.95811056	     -8.26449684	     -7.44063417	      2.61146477	     -0.05656213	      0.00000000	     -5.09476632	     -2.64950341	     -2.96299472	    -45.10295191	     -6.42764023	     -8.68092414	      0.00000000	    -25.83317123	      5.43738927	     -3.56067329
      5.22000000	      7.33469216	     -2.40264296	      5.34519356	     -2.26892779	      0.94033306	      0.25523168	      5.46878786	      7.20915233	     -8.26793206	     -7.32243106	      3.14449290	      0.29165319	      0.00000000	     -3.51212734	     -3.06113996	     -3.40175354	    -47.33140426	     -6.44328173	     -9.72624830	      0.00000000	    -25.82700624	      5.45312095	     -3.14268052
      5.23000000	      7.27809198	     -2.47927716	      5.39925603	     -2.26010288	      0.94128586	      0.25623838	      4.85079656	      7.37009978	     -8.51735571	     -7.18300394	      3.84819227	      0.91897326	      0.00000000	     -1.92029174	     -3.31447535	     -3.58740286	    -49.28388466	     -5.81553267	    -10.65772385	      0.00000000	    -25.82890960	      5.43793581	     -2.82733348
      5.24000000	      7.26268404	     -2.55158603	      5.43866629	     -2.25140301	      0.94226458	      0.25722295	      4.16117666	      7.54667502	     -8.66533546	     -6.97881098	      4.46548055	      1.44928191	      0.00000000	     -0.39186934	     -3.51849384	     -3.68087972	    -50.95671771	     -4.69113293	    -11.17731516	      0.00000000	    -25.90395894	      5.40844382	     -2.48512263
      5.25000000	      7.25869565	     -2.58850849	      5.49103038	     -2.24284750	      0.94325157	      0.25809042	      3.46283271	      7.67920783	     -8.92687194	     -6.76980600	      5.15724862	      2.14257442	      0.00000000	      1.09907219	     -3.61469818	     -3.63056011	    -52.32718750	     -3.33041426	    -11.37968187	      0.00000000	    -26.02278727	      5.35907953	     -2.16474771
      5.26000000	      7.18061007	     -2.60677757	      5.51017019	     -2.23438383	      0.94410774	      0.25892303	      2.82403774	      7.79606210	     -9.05855489	     -6.51065583	      5.72239871	      2.62133545	      0.00000000	      2.63277794	     -3.63409370	     -3.53225690	    -53.39682088	     -1.83735474	    -11.23296023	      0.00000000	    -26.05247593	      5.28216324	     -1.82371037
      5.27000000	      7.03556426	     -2.61454360	      5.49483287	     -2.22600094	      0.94482321	      0.25972803	      2.24981595	      7.90214911	     -9.05398790	     -6.23116881	      6.24634050	      2.95844390	      0.00000000	      4.19265954	     -3.59134560	     -3.39395176	    -54.16532048	     -0.35243863	    -10.75759967	      0.00000000	    -25.99998749	      5.18937109	     -1.46031869
